# xmcd
#
# Track frame offsets: 
#        150
#        13354
#        26396
#        43968
#        59139
#        75472
#        88937
#        102891
#        122748
#        136018
#        156117
#        169089
#        185001
#        204415
#
# Disc length: 2929 seconds
#
# Revision: 3
# Processed by: cddbd v1.5.2PL0 Copyright (c) Steve Scherf et al.
# Submitted via: ExactAudioCopy v1.0b3
#
DISCID=be0b6f0e
DTITLE=Otis Spann - Cracked Spanner Head
DYEAR=1969
DGENRE=Blues
TTITLE0=Crack Your Head
TTITLE1=Iced Nehi
TTITLE2=Wagon Wheel
TTITLE3=No Sense in Worrying
TTITLE4=Dollar Twenty Five
TTITLE5=Everything's Gonna Be Alright
TTITLE6=Lucky So and So
TTITLE7=Sometimes I Wonder
TTITLE8=Mr. Highway Man
TTITLE9=What Will Become of Me
TTITLE10=Pretty Girls Everywhere
TTITLE11=Country Boy
TTITLE12=My Home in the Delta
TTITLE13=You're Gonna Need My Help
EXTD=
EXTT0=
EXTT1=
EXTT2=
EXTT3=
EXTT4=
EXTT5=
EXTT6=
EXTT7=
EXTT8=
EXTT9=
EXTT10=
EXTT11=
EXTT12=
EXTT13=
PLAYORDER=
